<svg xmlns="http://www.w3.org/2000/svg" viewBox="0 0 32 32" id="algorithm">
  <path fill="#ffb300" d="M14 12.05a1 1 0 0 1-1-1V7a1 1 0 0 1 2 0v4.05A1 1 0 0 1 14 12.05zM14 26a1 1 0 0 1-1-1V21a1 1 0 0 1 2 0V25A1 1 0 0 1 14 26z"></path>
  <path d="M22 8H6A1 1 0 0 1 5 7V3A1 1 0 0 1 6 2H22a1 1 0 0 1 1 1V7A1 1 0 0 1 22 8zM7 6H21V4H7zM14 22a1 1 0 0 1-.71-.29L8.34 16.71a1 1 0 0 1 0-1.42l4.95-4.95a1 1 0 0 1 1.42 0l4.95 4.95a1 1 0 0 1 0 1.42l-4.95 4.95A1 1 0 0 1 14 22zM10.46 16L14 19.54 17.54 16 14 12.46zM21 30H5a1 1 0 0 1-.89-1.45l2-4A1 1 0 0 1 7 24H23a1 1 0 0 1 .89 1.45l-2 4A1 1 0 0 1 21 30zM6.62 28H20.38l1-2H7.62z"></path>
  <path fill="#ffb300" d="M27,17H23a1,1,0,0,1,0-2h3V6H25a1,1,0,0,1,0-2h2a1,1,0,0,1,1,1V16A1,1,0,0,1,27,17Z"></path>
</svg>